<?xml version="1.0" encoding="UTF-8" standalone="no"?>
<!DOCTYPE svg PUBLIC "-//W3C//DTD SVG 1.1//EN" "http://www.w3.org/Graphics/SVG/1.1/DTD/svg11.dtd">
<svg xmlns="http://www.w3.org/2000/svg" version="1.1" xmlns:xlink="http://www.w3.org/1999/xlink" viewBox="0 0 512 288">

<!-- Copyright 2015-2022 Isaac Gouy -->

<!-- Box plot chart showing benchmark program performance grouped by implementation language -->

<!-- The Computer Language Benchmarks Game -->
<!-- https://benchmarksgame-team.pages.debian.net/benchmarksgame/license.html -->

<g style="stroke: #ccc;">
<line x1="51" y1="264" x2="461" y2="264"/>
<line x1="51" y1="221.57" x2="461" y2="221.57"/>
<line x1="51" y1="201.85" x2="461" y2="201.85"/>
<line x1="51" y1="175.08" x2="461" y2="175.08"/>
<line x1="51" y1="132.65" x2="461" y2="132.65"/>
<line x1="51" y1="112.92" x2="461" y2="112.92"/>
<line x1="51" y1="86.15" x2="461" y2="86.15"/>
<line x1="51" y1="43.73" x2="461" y2="43.73"/>
<line x1="51" y1="24" x2="461" y2="24"/>
</g>
<g style="text-anchor: end; font-family: Ubuntu,Verdana,sans-serif; font-size: 0.9em;">
<text x="51" y="262">1</text>
<text x="51" y="219.57">3</text>
<text x="51" y="199.85">5</text>
<text x="51" y="173.08">10</text>
<text x="51" y="130.65">30</text>
<text x="51" y="110.92">50</text>
<text x="51" y="84.15">100</text>
<text x="51" y="41.73">300</text>
<text x="51" y="22"/>
</g>
<defs>
<linearGradient id="grade" x1="0" y1="0" x2="0" y2="1">
<stop offset="0" style="stop-color: white" stop-opacity="0.6"/>
<stop offset="1" style="stop-color: white" stop-opacity="0.8"/>
</linearGradient>
<mask id="fade">
<rect x="58" y="24" width="452" height="288" fill="url(#grade)"/>
</mask>
<g id="backgroundText" style="text-anchor: end; font-family: Ubuntu,Verdana,sans-serif; font-size: 1em;">
<text x="16" y="0" transform="rotate(270,16,0)" xml:space="preserve">   C gcc   C gcc   C gcc   C gcc   C gcc</text>
<text x="43" y="0" transform="rotate(270,43,0)" xml:space="preserve">   C++ g++   C++ g++   C++ g++   C++ g++</text>
<text x="70" y="0" transform="rotate(270,70,0)" xml:space="preserve">   Rust   Rust   Rust   Rust   Rust   Rust</text>
<text x="97" y="0" transform="rotate(270,97,0)" xml:space="preserve">   Julia   Julia   Julia   Julia   Julia</text>
<text x="124" y="0" transform="rotate(270,124,0)" xml:space="preserve">   Classic Fortran   Classic Fortran</text>
<text x="151" y="0" transform="rotate(270,151,0)" xml:space="preserve">   C# .NET   C# .NET   C# .NET   C# .NET</text>
<text x="178" y="0" transform="rotate(270,178,0)" xml:space="preserve">   Chapel   Chapel   Chapel   Chapel   Chapel</text>
<text x="205" y="0" transform="rotate(270,205,0)" xml:space="preserve">   Ada 2012 GNAT   Ada 2012 GNAT   Ada 2012 GNAT</text>
<text x="232" y="0" transform="rotate(270,232,0)" xml:space="preserve">   Haskell GHC   Haskell GHC   Haskell GHC</text>
<text x="259" y="0" transform="rotate(270,259,0)" xml:space="preserve">   Free Pascal   Free Pascal   Free Pascal</text>
<text x="286" y="0" transform="rotate(270,286,0)" xml:space="preserve">   Go   Go   Go   Go   Go   Go   Go   Go   Go   Go</text>
<text x="313" y="0" transform="rotate(270,313,0)" xml:space="preserve">   F# .NET   F# .NET   F# .NET   F# .NET</text>
<text x="340" y="0" transform="rotate(270,340,0)" xml:space="preserve">   Swift   Swift   Swift   Swift   Swift</text>
<text x="367" y="0" transform="rotate(270,367,0)" xml:space="preserve">   Java   Java   Java   Java   Java   Java</text>
<text x="394" y="0" transform="rotate(270,394,0)" xml:space="preserve">   Lisp SBCL   Lisp SBCL   Lisp SBCL</text>
</g>
</defs>
<use x="60" y="27" xlink:href="#backgroundText"/>
<rect x="58" y="24" width="452" height="288" fill="white" mask="url(#fade)"/>
<rect x="58" y="264" width="452" height="288" style="fill: white; stroke: white;"/>
<g style="fill: black; stroke: black;">
<rect x="72" y="245.83" width="1" height="18.17"/>
<rect x="99" y="238.18" width="1" height="25.82"/>
<rect x="126" y="238.18" width="1" height="25.82"/>
<rect x="153" y="206.86" width="1" height="45.4"/>
<rect x="180" y="209.36" width="1" height="46.4"/>
<rect x="207" y="190.46" width="1" height="73.54"/>
<rect x="234" y="189.38" width="1" height="73.79"/>
<rect x="261" y="192.78" width="1" height="62.66"/>
<rect x="288" y="192.42" width="1" height="62.52"/>
<rect x="315" y="188.01" width="1" height="67.57"/>
<rect x="342" y="186.11" width="1" height="63.68"/>
<rect x="369" y="200.02" width="1" height="51.52"/>
<rect x="396" y="195.69" width="1" height="59.72"/>
<rect x="423" y="183.64" width="1" height="68.9"/>
<rect x="450" y="177.17" width="1" height="47.04"/>
</g>
<g style="fill: white; stroke: black;">
<rect x="62" y="255.68" width="22" height="8.32"/>
<rect x="89" y="247.42" width="22" height="16.58"/>
<rect x="116" y="244.19" width="22" height="14.26"/>
<rect x="143" y="224.34" width="22" height="18.56"/>
<rect x="170" y="226.36" width="22" height="17.78"/>
<rect x="197" y="214.79" width="22" height="33.99"/>
<rect x="224" y="211.81" width="22" height="28.75"/>
<rect x="251" y="211.18" width="22" height="20.16"/>
<rect x="278" y="202.52" width="22" height="29.59"/>
<rect x="305" y="201.45" width="22" height="19.86"/>
<rect x="332" y="203.05" width="22" height="17.67"/>
<rect x="359" y="207.67" width="22" height="22.41"/>
<rect x="386" y="211.29" width="22" height="15.58"/>
<rect x="413" y="202.75" width="22" height="21.5"/>
<rect x="440" y="196" width="22" height="20.96"/>
</g>
<g style="fill: black; stroke: black;">
<line x1="68.5" y1="264" x2="78" y2="264"/>
<line x1="68.5" y1="245.83" x2="78" y2="245.83"/>
<line x1="68.5" y1="234.29" x2="78" y2="234.29"/>
<rect x="72" y="234.29" width="1" height="5"/>
</g>
<g style="fill: black; stroke: black;">
<rect x="63" y="260.7" width="20" height="1"/>
</g>
<g style="fill: black; stroke: black;">
<line x1="95.5" y1="264" x2="105" y2="264"/>
<line x1="95.5" y1="238.18" x2="105" y2="238.18"/>
</g>
<g style="fill: black; stroke: black;">
<rect x="90" y="257.31" width="20" height="1"/>
</g>
<g style="fill: black; stroke: black;">
<line x1="122.5" y1="264" x2="132" y2="264"/>
<line x1="122.5" y1="238.18" x2="132" y2="238.18"/>
</g>
<g style="fill: black; stroke: black;">
<rect x="117" y="252.75" width="20" height="1"/>
</g>
<g style="fill: black; stroke: black;">
<line x1="149.5" y1="252.26" x2="159" y2="252.26"/>
<line x1="149.5" y1="206.86" x2="159" y2="206.86"/>
<line x1="149.5" y1="183.37" x2="159" y2="183.37"/>
<rect x="153" y="183.37" width="1" height="5"/>
</g>
<g style="fill: black; stroke: black;">
<rect x="144" y="236.72" width="20" height="1"/>
</g>
<g style="fill: black; stroke: black;">
<line x1="176.5" y1="255.76" x2="186" y2="255.76"/>
<line x1="176.5" y1="209.36" x2="186" y2="209.36"/>
<line x1="176.5" y1="190.96" x2="186" y2="190.96"/>
<rect x="180" y="190.96" width="1" height="5"/>
</g>
<g style="fill: black; stroke: black;">
<rect x="171" y="235.8" width="20" height="1"/>
</g>
<g style="fill: black; stroke: black;">
<line x1="203.5" y1="264" x2="213" y2="264"/>
<line x1="203.5" y1="190.46" x2="213" y2="190.46"/>
<line x1="203.5" y1="188.93" x2="213" y2="188.93"/>
<rect x="207" y="188.93" width="1" height="5"/>
</g>
<g style="fill: black; stroke: black;">
<rect x="198" y="235.6" width="20" height="1"/>
</g>
<g style="fill: black; stroke: black;">
<line x1="230.5" y1="263.17" x2="240" y2="263.17"/>
<line x1="230.5" y1="189.38" x2="240" y2="189.38"/>
<line x1="230.5" y1="186.57" x2="240" y2="186.57"/>
<rect x="234" y="186.57" width="1" height="5"/>
</g>
<g style="fill: black; stroke: black;">
<rect x="225" y="225.79" width="20" height="1"/>
</g>
<g style="fill: black; stroke: black;">
<line x1="257.5" y1="255.45" x2="267" y2="255.45"/>
<line x1="257.5" y1="192.78" x2="267" y2="192.78"/>
<line x1="257.5" y1="187.69" x2="267" y2="187.69"/>
<rect x="261" y="187.69" width="1" height="5"/>
</g>
<g style="fill: black; stroke: black;">
<rect x="252" y="218.6" width="20" height="1"/>
</g>
<g style="fill: black; stroke: black;">
<line x1="284.5" y1="254.95" x2="294" y2="254.95"/>
<line x1="284.5" y1="192.42" x2="294" y2="192.42"/>
</g>
<g style="fill: black; stroke: black;">
<rect x="279" y="215.93" width="20" height="1"/>
</g>
<g style="fill: black; stroke: black;">
<line x1="311.5" y1="255.58" x2="321" y2="255.58"/>
<line x1="311.5" y1="188.01" x2="321" y2="188.01"/>
</g>
<g style="fill: black; stroke: black;">
<rect x="306" y="213.31" width="20" height="1"/>
</g>
<g style="fill: black; stroke: black;">
<line x1="338.5" y1="249.79" x2="348" y2="249.79"/>
<line x1="338.5" y1="186.11" x2="348" y2="186.11"/>
<line x1="338.5" y1="180.74" x2="348" y2="180.74"/>
<rect x="342" y="180.74" width="1" height="5"/>
</g>
<g style="fill: black; stroke: black;">
<rect x="333" y="212.32" width="20" height="1"/>
</g>
<g style="fill: black; stroke: black;">
<line x1="365.5" y1="251.53" x2="375" y2="251.53"/>
<line x1="365.5" y1="200.02" x2="375" y2="200.02"/>
</g>
<g style="fill: black; stroke: black;">
<rect x="360" y="212.26" width="20" height="1"/>
</g>
<g style="fill: black; stroke: black;">
<line x1="392.5" y1="255.4" x2="402" y2="255.4"/>
<line x1="392.5" y1="195.69" x2="402" y2="195.69"/>
<line x1="392.5" y1="149.78" x2="402" y2="149.78"/>
<rect x="396" y="149.78" width="1" height="5"/>
</g>
<g style="fill: black; stroke: black;">
<rect x="387" y="211.87" width="20" height="1"/>
</g>
<g style="fill: black; stroke: black;">
<line x1="419.5" y1="252.54" x2="429" y2="252.54"/>
<line x1="419.5" y1="183.64" x2="429" y2="183.64"/>
<line x1="419.5" y1="177.19" x2="429" y2="177.19"/>
<rect x="423" y="177.19" width="1" height="5"/>
</g>
<g style="fill: black; stroke: black;">
<rect x="414" y="208.51" width="20" height="1"/>
</g>
<g style="fill: black; stroke: black;">
<line x1="446.5" y1="224.21" x2="456" y2="224.21"/>
<line x1="446.5" y1="177.17" x2="456" y2="177.17"/>
<line x1="446.5" y1="153.64" x2="456" y2="153.64"/>
<rect x="450" y="153.64" width="1" height="5"/>
</g>
<g style="fill: black; stroke: black;">
<rect x="441" y="208.04" width="20" height="1"/>
</g>
<g style="text-anchor: end; font-family: Ubuntu,Verdana,sans-serif; font-size: 0.9em;">
<text x="462" y="282">01 Mar 2023 u64q</text>
<text x="58" y="282" style="text-anchor: start;">benchmarks game</text>
</g>
<text x="16" y="144" transform="rotate(270,16,144)" style="text-anchor: middle; font-family: Ubuntu,Verdana,sans-serif; font-size: 0.9em;">program cpu seconds / lowest</text>
<rect x="58" y="0" width="452" height="23" style="fill: white; stroke: white;"/>
<text x="259.5" y="18" style="text-anchor: middle; font-family: Ubuntu,Verdana,sans-serif; font-size: 1.2em;">How many times more CPU seconds?</text>
<g style="stroke: #333;">
<line x1="58" y1="24" x2="58" y2="264"/>
<line x1="461" y1="24" x2="461" y2="264"/>
<line x1="58" y1="264" x2="461" y2="264"/>
</g>
</svg>